<mxfile host="www.draw.io" modified="2020-02-24T21:19:20.633Z" agent="Mozilla/5.0 (X11; Linux x86_64) AppleWebKit/537.36 (KHTML, like Gecko) Chrome/79.0.3945.130 Safari/537.36" etag="a1S8tP9CEpOomHrQq-iX" version="12.7.4" type="github">
  <diagram name="Page-1" id="ad52d381-51e7-2e0d-a935-2d0ddd2fd229">
    <mxGraphModel dx="991" dy="1089" grid="1" gridSize="10" guides="1" tooltips="1" connect="1" arrows="1" fold="1" page="1" pageScale="1" pageWidth="4500" pageHeight="3000" background="#ffffff" math="0" shadow="0">
      <root>
        <mxCell id="0" />
        <mxCell id="1" parent="0" />
        <mxCell id="PjsLy7RfEbO4GPlwERFH-27" style="edgeStyle=orthogonalEdgeStyle;rounded=0;orthogonalLoop=1;jettySize=auto;html=1;entryX=0;entryY=0.5;entryDx=0;entryDy=0;" parent="1" source="2c924340bb9dbf6c-4" target="PjsLy7RfEbO4GPlwERFH-2" edge="1">
          <mxGeometry relative="1" as="geometry" />
        </mxCell>
        <mxCell id="OrsZ6i-USayrmDN_K0OZ-16" style="edgeStyle=orthogonalEdgeStyle;rounded=0;orthogonalLoop=1;jettySize=auto;html=1;" edge="1" parent="1" source="2c924340bb9dbf6c-4" target="OrsZ6i-USayrmDN_K0OZ-15">
          <mxGeometry relative="1" as="geometry" />
        </mxCell>
        <mxCell id="2c924340bb9dbf6c-4" value="Constitucion Politica" style="ellipse;whiteSpace=wrap;html=1;rounded=1;shadow=1;comic=0;labelBackgroundColor=none;strokeWidth=2;fontFamily=Verdana;fontSize=12;align=center;fillColor=#f8cecc;strokeColor=#b85450;" parent="1" vertex="1">
          <mxGeometry x="1410" y="1380" width="120" height="120" as="geometry" />
        </mxCell>
        <mxCell id="PjsLy7RfEbO4GPlwERFH-6" style="edgeStyle=orthogonalEdgeStyle;rounded=0;orthogonalLoop=1;jettySize=auto;html=1;entryX=0;entryY=0.5;entryDx=0;entryDy=0;" parent="1" source="PjsLy7RfEbO4GPlwERFH-2" target="PjsLy7RfEbO4GPlwERFH-5" edge="1">
          <mxGeometry relative="1" as="geometry" />
        </mxCell>
        <mxCell id="PjsLy7RfEbO4GPlwERFH-76" style="edgeStyle=orthogonalEdgeStyle;rounded=0;orthogonalLoop=1;jettySize=auto;html=1;entryX=0;entryY=0.5;entryDx=0;entryDy=0;" parent="1" source="PjsLy7RfEbO4GPlwERFH-2" target="PjsLy7RfEbO4GPlwERFH-65" edge="1">
          <mxGeometry relative="1" as="geometry" />
        </mxCell>
        <mxCell id="OrsZ6i-USayrmDN_K0OZ-3" style="edgeStyle=orthogonalEdgeStyle;rounded=0;orthogonalLoop=1;jettySize=auto;html=1;entryX=0;entryY=0.5;entryDx=0;entryDy=0;" edge="1" parent="1" source="PjsLy7RfEbO4GPlwERFH-2" target="PjsLy7RfEbO4GPlwERFH-77">
          <mxGeometry relative="1" as="geometry">
            <mxPoint x="1840" y="830" as="targetPoint" />
            <Array as="points">
              <mxPoint x="1810" y="1430" />
              <mxPoint x="1810" y="825" />
            </Array>
          </mxGeometry>
        </mxCell>
        <mxCell id="OrsZ6i-USayrmDN_K0OZ-14" style="edgeStyle=orthogonalEdgeStyle;rounded=0;orthogonalLoop=1;jettySize=auto;html=1;entryX=0;entryY=0.5;entryDx=0;entryDy=0;" edge="1" parent="1" source="PjsLy7RfEbO4GPlwERFH-2" target="OrsZ6i-USayrmDN_K0OZ-4">
          <mxGeometry relative="1" as="geometry">
            <mxPoint x="1810" y="190" as="targetPoint" />
            <Array as="points">
              <mxPoint x="1660" y="280" />
            </Array>
          </mxGeometry>
        </mxCell>
        <mxCell id="PjsLy7RfEbO4GPlwERFH-2" value="De los mexicanos" style="rounded=0;whiteSpace=wrap;html=1;" parent="1" vertex="1">
          <mxGeometry x="1630" y="1400" width="120" height="60" as="geometry" />
        </mxCell>
        <mxCell id="PjsLy7RfEbO4GPlwERFH-17" style="edgeStyle=orthogonalEdgeStyle;rounded=0;orthogonalLoop=1;jettySize=auto;html=1;" parent="1" source="PjsLy7RfEbO4GPlwERFH-5" target="PjsLy7RfEbO4GPlwERFH-11" edge="1">
          <mxGeometry relative="1" as="geometry" />
        </mxCell>
        <mxCell id="PjsLy7RfEbO4GPlwERFH-18" style="edgeStyle=orthogonalEdgeStyle;rounded=0;orthogonalLoop=1;jettySize=auto;html=1;exitX=1;exitY=0.75;exitDx=0;exitDy=0;entryX=0;entryY=0.75;entryDx=0;entryDy=0;" parent="1" source="PjsLy7RfEbO4GPlwERFH-5" target="PjsLy7RfEbO4GPlwERFH-9" edge="1">
          <mxGeometry relative="1" as="geometry" />
        </mxCell>
        <mxCell id="PjsLy7RfEbO4GPlwERFH-19" style="edgeStyle=orthogonalEdgeStyle;rounded=0;orthogonalLoop=1;jettySize=auto;html=1;exitX=1;exitY=1;exitDx=0;exitDy=0;entryX=0;entryY=0.5;entryDx=0;entryDy=0;" parent="1" source="PjsLy7RfEbO4GPlwERFH-5" target="PjsLy7RfEbO4GPlwERFH-12" edge="1">
          <mxGeometry relative="1" as="geometry" />
        </mxCell>
        <mxCell id="PjsLy7RfEbO4GPlwERFH-20" style="edgeStyle=orthogonalEdgeStyle;rounded=0;orthogonalLoop=1;jettySize=auto;html=1;exitX=0.75;exitY=1;exitDx=0;exitDy=0;entryX=0;entryY=0.5;entryDx=0;entryDy=0;" parent="1" source="PjsLy7RfEbO4GPlwERFH-5" target="PjsLy7RfEbO4GPlwERFH-13" edge="1">
          <mxGeometry relative="1" as="geometry" />
        </mxCell>
        <mxCell id="PjsLy7RfEbO4GPlwERFH-21" style="edgeStyle=orthogonalEdgeStyle;rounded=0;orthogonalLoop=1;jettySize=auto;html=1;exitX=0.5;exitY=1;exitDx=0;exitDy=0;entryX=0;entryY=0.5;entryDx=0;entryDy=0;" parent="1" source="PjsLy7RfEbO4GPlwERFH-5" target="PjsLy7RfEbO4GPlwERFH-14" edge="1">
          <mxGeometry relative="1" as="geometry" />
        </mxCell>
        <mxCell id="PjsLy7RfEbO4GPlwERFH-22" style="edgeStyle=orthogonalEdgeStyle;rounded=0;orthogonalLoop=1;jettySize=auto;html=1;exitX=1;exitY=0.75;exitDx=0;exitDy=0;entryX=0;entryY=0.5;entryDx=0;entryDy=0;" parent="1" source="PjsLy7RfEbO4GPlwERFH-5" target="PjsLy7RfEbO4GPlwERFH-15" edge="1">
          <mxGeometry relative="1" as="geometry" />
        </mxCell>
        <mxCell id="PjsLy7RfEbO4GPlwERFH-23" style="edgeStyle=orthogonalEdgeStyle;rounded=0;orthogonalLoop=1;jettySize=auto;html=1;exitX=1;exitY=0.25;exitDx=0;exitDy=0;entryX=0;entryY=0.5;entryDx=0;entryDy=0;" parent="1" source="PjsLy7RfEbO4GPlwERFH-5" target="PjsLy7RfEbO4GPlwERFH-16" edge="1">
          <mxGeometry relative="1" as="geometry">
            <Array as="points">
              <mxPoint x="2000" y="1340" />
              <mxPoint x="2040" y="1340" />
              <mxPoint x="2040" y="1870" />
            </Array>
          </mxGeometry>
        </mxCell>
        <mxCell id="PjsLy7RfEbO4GPlwERFH-5" value="35.&lt;br&gt;Derechos&amp;nbsp; de la cuidadania&lt;br&gt;" style="rounded=0;whiteSpace=wrap;html=1;" parent="1" vertex="1">
          <mxGeometry x="1880" y="1310" width="120" height="60" as="geometry" />
        </mxCell>
        <mxCell id="PjsLy7RfEbO4GPlwERFH-9" value="&lt;span style=&quot;white-space: normal&quot;&gt;Ser votado. registro como candidato&lt;/span&gt;" style="rounded=1;whiteSpace=wrap;html=1;" parent="1" vertex="1">
          <mxGeometry x="2080" y="1390" width="120" height="60" as="geometry" />
        </mxCell>
        <mxCell id="PjsLy7RfEbO4GPlwERFH-11" value="Votar" style="rounded=1;whiteSpace=wrap;html=1;" parent="1" vertex="1">
          <mxGeometry x="2080" y="1310" width="120" height="60" as="geometry" />
        </mxCell>
        <mxCell id="PjsLy7RfEbO4GPlwERFH-12" value="Asociacion para tomar parte en asuntos politicos" style="rounded=1;whiteSpace=wrap;html=1;" parent="1" vertex="1">
          <mxGeometry x="2080" y="1480" width="120" height="60" as="geometry" />
        </mxCell>
        <mxCell id="PjsLy7RfEbO4GPlwERFH-13" value="Tomar armas en las Fuerzas armadas" style="rounded=1;whiteSpace=wrap;html=1;" parent="1" vertex="1">
          <mxGeometry x="2080" y="1560" width="120" height="60" as="geometry" />
        </mxCell>
        <mxCell id="PjsLy7RfEbO4GPlwERFH-14" value="Derecho de peticion" style="rounded=1;whiteSpace=wrap;html=1;" parent="1" vertex="1">
          <mxGeometry x="2080" y="1650" width="120" height="60" as="geometry" />
        </mxCell>
        <mxCell id="PjsLy7RfEbO4GPlwERFH-15" value="Iniciar leyes con los requisitos necesarios" style="rounded=1;whiteSpace=wrap;html=1;" parent="1" vertex="1">
          <mxGeometry x="2080" y="1740" width="120" height="60" as="geometry" />
        </mxCell>
        <mxCell id="PjsLy7RfEbO4GPlwERFH-16" value="Votar en Consultas populares" style="rounded=1;whiteSpace=wrap;html=1;fillColor=#dae8fc;strokeColor=#6c8ebf;" parent="1" vertex="1">
          <mxGeometry x="2080" y="1840" width="120" height="60" as="geometry" />
        </mxCell>
        <mxCell id="PjsLy7RfEbO4GPlwERFH-37" style="edgeStyle=orthogonalEdgeStyle;rounded=0;orthogonalLoop=1;jettySize=auto;html=1;entryX=0;entryY=0.25;entryDx=0;entryDy=0;" parent="1" source="PjsLy7RfEbO4GPlwERFH-28" target="PjsLy7RfEbO4GPlwERFH-34" edge="1">
          <mxGeometry relative="1" as="geometry" />
        </mxCell>
        <mxCell id="PjsLy7RfEbO4GPlwERFH-38" style="edgeStyle=orthogonalEdgeStyle;rounded=0;orthogonalLoop=1;jettySize=auto;html=1;entryX=0;entryY=0.25;entryDx=0;entryDy=0;" parent="1" source="PjsLy7RfEbO4GPlwERFH-28" target="PjsLy7RfEbO4GPlwERFH-35" edge="1">
          <mxGeometry relative="1" as="geometry" />
        </mxCell>
        <mxCell id="PjsLy7RfEbO4GPlwERFH-39" style="edgeStyle=orthogonalEdgeStyle;rounded=0;orthogonalLoop=1;jettySize=auto;html=1;entryX=0;entryY=0.25;entryDx=0;entryDy=0;" parent="1" source="PjsLy7RfEbO4GPlwERFH-28" target="PjsLy7RfEbO4GPlwERFH-36" edge="1">
          <mxGeometry relative="1" as="geometry" />
        </mxCell>
        <mxCell id="PjsLy7RfEbO4GPlwERFH-28" value="&lt;span style=&quot;white-space: normal&quot;&gt;Convocadas Por:&lt;/span&gt;" style="ellipse;whiteSpace=wrap;html=1;" parent="1" vertex="1">
          <mxGeometry x="2390" y="1680" width="110" height="70" as="geometry" />
        </mxCell>
        <mxCell id="PjsLy7RfEbO4GPlwERFH-31" value="" style="edgeStyle=orthogonalEdgeStyle;rounded=0;orthogonalLoop=1;jettySize=auto;html=1;entryX=1;entryY=0.5;entryDx=0;entryDy=0;" parent="1" source="PjsLy7RfEbO4GPlwERFH-29" target="PjsLy7RfEbO4GPlwERFH-16" edge="1">
          <mxGeometry relative="1" as="geometry">
            <mxPoint x="2310" y="1870" as="targetPoint" />
          </mxGeometry>
        </mxCell>
        <mxCell id="PjsLy7RfEbO4GPlwERFH-33" style="edgeStyle=orthogonalEdgeStyle;rounded=0;orthogonalLoop=1;jettySize=auto;html=1;entryX=0.5;entryY=1;entryDx=0;entryDy=0;" parent="1" source="PjsLy7RfEbO4GPlwERFH-29" target="PjsLy7RfEbO4GPlwERFH-28" edge="1">
          <mxGeometry relative="1" as="geometry" />
        </mxCell>
        <mxCell id="PjsLy7RfEbO4GPlwERFH-50" style="edgeStyle=orthogonalEdgeStyle;rounded=0;orthogonalLoop=1;jettySize=auto;html=1;entryX=0.5;entryY=0;entryDx=0;entryDy=0;" parent="1" source="PjsLy7RfEbO4GPlwERFH-29" target="PjsLy7RfEbO4GPlwERFH-40" edge="1">
          <mxGeometry relative="1" as="geometry" />
        </mxCell>
        <mxCell id="PjsLy7RfEbO4GPlwERFH-62" style="edgeStyle=orthogonalEdgeStyle;rounded=0;orthogonalLoop=1;jettySize=auto;html=1;" parent="1" source="PjsLy7RfEbO4GPlwERFH-29" target="PjsLy7RfEbO4GPlwERFH-61" edge="1">
          <mxGeometry relative="1" as="geometry">
            <Array as="points">
              <mxPoint x="2450" y="1940" />
              <mxPoint x="2210" y="1940" />
            </Array>
          </mxGeometry>
        </mxCell>
        <mxCell id="PjsLy7RfEbO4GPlwERFH-29" value="&lt;span style=&quot;font-family: &amp;#34;helvetica&amp;#34;&quot;&gt;Consultas Populares&lt;/span&gt;" style="ellipse;whiteSpace=wrap;html=1;rounded=1;shadow=1;comic=0;labelBackgroundColor=none;strokeWidth=2;fontFamily=Verdana;fontSize=12;align=center;fillColor=#f8cecc;strokeColor=#b85450;" parent="1" vertex="1">
          <mxGeometry x="2390" y="1800" width="120" height="130" as="geometry" />
        </mxCell>
        <mxCell id="PjsLy7RfEbO4GPlwERFH-34" value="Presidente de la Republica" style="rounded=1;whiteSpace=wrap;html=1;" parent="1" vertex="1">
          <mxGeometry x="2580" y="1600" width="120" height="60" as="geometry" />
        </mxCell>
        <mxCell id="PjsLy7RfEbO4GPlwERFH-35" value="33% del Congreso de la Union" style="rounded=1;whiteSpace=wrap;html=1;" parent="1" vertex="1">
          <mxGeometry x="2580" y="1700" width="120" height="60" as="geometry" />
        </mxCell>
        <mxCell id="PjsLy7RfEbO4GPlwERFH-36" value="2% de los cuidadanos registrados en las listas nominales" style="rounded=1;whiteSpace=wrap;html=1;" parent="1" vertex="1">
          <mxGeometry x="2580" y="1800" width="120" height="60" as="geometry" />
        </mxCell>
        <mxCell id="PjsLy7RfEbO4GPlwERFH-47" style="edgeStyle=orthogonalEdgeStyle;rounded=0;orthogonalLoop=1;jettySize=auto;html=1;entryX=0;entryY=0.25;entryDx=0;entryDy=0;" parent="1" source="PjsLy7RfEbO4GPlwERFH-40" target="PjsLy7RfEbO4GPlwERFH-41" edge="1">
          <mxGeometry relative="1" as="geometry" />
        </mxCell>
        <mxCell id="PjsLy7RfEbO4GPlwERFH-48" style="edgeStyle=orthogonalEdgeStyle;rounded=0;orthogonalLoop=1;jettySize=auto;html=1;entryX=0;entryY=0.5;entryDx=0;entryDy=0;" parent="1" source="PjsLy7RfEbO4GPlwERFH-40" target="PjsLy7RfEbO4GPlwERFH-44" edge="1">
          <mxGeometry relative="1" as="geometry" />
        </mxCell>
        <mxCell id="PjsLy7RfEbO4GPlwERFH-51" style="edgeStyle=orthogonalEdgeStyle;rounded=0;orthogonalLoop=1;jettySize=auto;html=1;entryX=0;entryY=0.25;entryDx=0;entryDy=0;" parent="1" source="PjsLy7RfEbO4GPlwERFH-40" target="PjsLy7RfEbO4GPlwERFH-49" edge="1">
          <mxGeometry relative="1" as="geometry" />
        </mxCell>
        <mxCell id="PjsLy7RfEbO4GPlwERFH-54" style="edgeStyle=orthogonalEdgeStyle;rounded=0;orthogonalLoop=1;jettySize=auto;html=1;entryX=0;entryY=0.5;entryDx=0;entryDy=0;" parent="1" source="PjsLy7RfEbO4GPlwERFH-40" target="PjsLy7RfEbO4GPlwERFH-52" edge="1">
          <mxGeometry relative="1" as="geometry" />
        </mxCell>
        <mxCell id="PjsLy7RfEbO4GPlwERFH-55" style="edgeStyle=orthogonalEdgeStyle;rounded=0;orthogonalLoop=1;jettySize=auto;html=1;entryX=0.008;entryY=0.624;entryDx=0;entryDy=0;entryPerimeter=0;" parent="1" source="PjsLy7RfEbO4GPlwERFH-40" target="PjsLy7RfEbO4GPlwERFH-53" edge="1">
          <mxGeometry relative="1" as="geometry" />
        </mxCell>
        <mxCell id="PjsLy7RfEbO4GPlwERFH-40" value="No se podran utilizar para:" style="ellipse;whiteSpace=wrap;html=1;" parent="1" vertex="1">
          <mxGeometry x="2390" y="1970" width="120" height="80" as="geometry" />
        </mxCell>
        <mxCell id="PjsLy7RfEbO4GPlwERFH-41" value="Derechos humanos reconocidos por la const" style="rounded=1;whiteSpace=wrap;html=1;" parent="1" vertex="1">
          <mxGeometry x="2580" y="1930" width="120" height="60" as="geometry" />
        </mxCell>
        <mxCell id="PjsLy7RfEbO4GPlwERFH-46" style="edgeStyle=orthogonalEdgeStyle;rounded=0;orthogonalLoop=1;jettySize=auto;html=1;entryX=0;entryY=0.5;entryDx=0;entryDy=0;" parent="1" source="PjsLy7RfEbO4GPlwERFH-44" target="PjsLy7RfEbO4GPlwERFH-45" edge="1">
          <mxGeometry relative="1" as="geometry" />
        </mxCell>
        <mxCell id="PjsLy7RfEbO4GPlwERFH-44" value="Principios consagrados en el articulo 40" style="rounded=1;whiteSpace=wrap;html=1;" parent="1" vertex="1">
          <mxGeometry x="2580" y="2000" width="120" height="60" as="geometry" />
        </mxCell>
        <mxCell id="PjsLy7RfEbO4GPlwERFH-45" value="Articulo 40.&lt;br&gt;Es voluntad del pueblo mexicano constituirse en una Replubica" style="rounded=1;whiteSpace=wrap;html=1;" parent="1" vertex="1">
          <mxGeometry x="2790" y="2000" width="130" height="80" as="geometry" />
        </mxCell>
        <mxCell id="PjsLy7RfEbO4GPlwERFH-49" value="Materia Electoral" style="rounded=1;whiteSpace=wrap;html=1;" parent="1" vertex="1">
          <mxGeometry x="2580" y="2100" width="120" height="60" as="geometry" />
        </mxCell>
        <mxCell id="PjsLy7RfEbO4GPlwERFH-52" value="ingresos y gastos del Estado" style="rounded=1;whiteSpace=wrap;html=1;" parent="1" vertex="1">
          <mxGeometry x="2580" y="2180" width="120" height="60" as="geometry" />
        </mxCell>
        <mxCell id="PjsLy7RfEbO4GPlwERFH-53" value="Seguridad nacional y organizacion, funcionamiento y disciplina de la fuerza armada" style="rounded=1;whiteSpace=wrap;html=1;" parent="1" vertex="1">
          <mxGeometry x="2580" y="2260" width="130" height="70" as="geometry" />
        </mxCell>
        <mxCell id="PjsLy7RfEbO4GPlwERFH-57" style="edgeStyle=orthogonalEdgeStyle;rounded=0;orthogonalLoop=1;jettySize=auto;html=1;entryX=1;entryY=0.25;entryDx=0;entryDy=0;" parent="1" source="PjsLy7RfEbO4GPlwERFH-56" target="PjsLy7RfEbO4GPlwERFH-34" edge="1">
          <mxGeometry relative="1" as="geometry" />
        </mxCell>
        <mxCell id="PjsLy7RfEbO4GPlwERFH-58" style="edgeStyle=orthogonalEdgeStyle;rounded=0;orthogonalLoop=1;jettySize=auto;html=1;entryX=1;entryY=0.5;entryDx=0;entryDy=0;" parent="1" source="PjsLy7RfEbO4GPlwERFH-56" target="PjsLy7RfEbO4GPlwERFH-35" edge="1">
          <mxGeometry relative="1" as="geometry" />
        </mxCell>
        <mxCell id="PjsLy7RfEbO4GPlwERFH-59" style="edgeStyle=orthogonalEdgeStyle;rounded=0;orthogonalLoop=1;jettySize=auto;html=1;entryX=1;entryY=0.5;entryDx=0;entryDy=0;" parent="1" source="PjsLy7RfEbO4GPlwERFH-56" target="PjsLy7RfEbO4GPlwERFH-36" edge="1">
          <mxGeometry relative="1" as="geometry" />
        </mxCell>
        <mxCell id="PjsLy7RfEbO4GPlwERFH-56" value="Participacion del 40% de los cuidadanos inscritos en la lista nominal el resultado se hara llegar a:" style="ellipse;whiteSpace=wrap;html=1;" parent="1" vertex="1">
          <mxGeometry x="2770" y="1680" width="170" height="110" as="geometry" />
        </mxCell>
        <mxCell id="PjsLy7RfEbO4GPlwERFH-60" value="" style="endArrow=none;dashed=1;html=1;entryX=1;entryY=0.5;entryDx=0;entryDy=0;" parent="1" source="PjsLy7RfEbO4GPlwERFH-56" target="PjsLy7RfEbO4GPlwERFH-29" edge="1">
          <mxGeometry width="50" height="50" relative="1" as="geometry">
            <mxPoint x="2860" y="1870" as="sourcePoint" />
            <mxPoint x="2280" y="1600" as="targetPoint" />
            <Array as="points">
              <mxPoint x="2860" y="1870" />
              <mxPoint x="2820" y="1870" />
            </Array>
          </mxGeometry>
        </mxCell>
        <mxCell id="PjsLy7RfEbO4GPlwERFH-61" value="Se realizara el mismo dia de la Jornada Electoral" style="rounded=1;whiteSpace=wrap;html=1;" parent="1" vertex="1">
          <mxGeometry x="2150" y="1990" width="120" height="60" as="geometry" />
        </mxCell>
        <mxCell id="PjsLy7RfEbO4GPlwERFH-64" style="edgeStyle=orthogonalEdgeStyle;rounded=0;orthogonalLoop=1;jettySize=auto;html=1;entryX=0.5;entryY=1;entryDx=0;entryDy=0;" parent="1" source="PjsLy7RfEbO4GPlwERFH-63" target="PjsLy7RfEbO4GPlwERFH-61" edge="1">
          <mxGeometry relative="1" as="geometry">
            <mxPoint x="2220" y="2130" as="targetPoint" />
          </mxGeometry>
        </mxCell>
        <mxCell id="PjsLy7RfEbO4GPlwERFH-63" value="&lt;span style=&quot;font-family: &amp;#34;helvetica&amp;#34;&quot;&gt;Jornada Electoral&lt;/span&gt;" style="ellipse;whiteSpace=wrap;html=1;rounded=1;shadow=1;comic=0;labelBackgroundColor=none;strokeWidth=2;fontFamily=Verdana;fontSize=12;align=center;fillColor=#f8cecc;strokeColor=#b85450;" parent="1" vertex="1">
          <mxGeometry x="1850" y="2065" width="120" height="130" as="geometry" />
        </mxCell>
        <mxCell id="PjsLy7RfEbO4GPlwERFH-71" style="edgeStyle=orthogonalEdgeStyle;rounded=0;orthogonalLoop=1;jettySize=auto;html=1;entryX=0;entryY=0.5;entryDx=0;entryDy=0;" parent="1" source="PjsLy7RfEbO4GPlwERFH-65" target="PjsLy7RfEbO4GPlwERFH-66" edge="1">
          <mxGeometry relative="1" as="geometry" />
        </mxCell>
        <mxCell id="PjsLy7RfEbO4GPlwERFH-72" style="edgeStyle=orthogonalEdgeStyle;rounded=0;orthogonalLoop=1;jettySize=auto;html=1;entryX=0;entryY=0.25;entryDx=0;entryDy=0;" parent="1" source="PjsLy7RfEbO4GPlwERFH-65" target="PjsLy7RfEbO4GPlwERFH-67" edge="1">
          <mxGeometry relative="1" as="geometry">
            <mxPoint x="2040" y="990" as="targetPoint" />
          </mxGeometry>
        </mxCell>
        <mxCell id="PjsLy7RfEbO4GPlwERFH-73" style="edgeStyle=orthogonalEdgeStyle;rounded=0;orthogonalLoop=1;jettySize=auto;html=1;entryX=0;entryY=0.5;entryDx=0;entryDy=0;" parent="1" source="PjsLy7RfEbO4GPlwERFH-65" target="PjsLy7RfEbO4GPlwERFH-68" edge="1">
          <mxGeometry relative="1" as="geometry" />
        </mxCell>
        <mxCell id="PjsLy7RfEbO4GPlwERFH-74" style="edgeStyle=orthogonalEdgeStyle;rounded=0;orthogonalLoop=1;jettySize=auto;html=1;entryX=0;entryY=0.5;entryDx=0;entryDy=0;" parent="1" source="PjsLy7RfEbO4GPlwERFH-65" target="PjsLy7RfEbO4GPlwERFH-69" edge="1">
          <mxGeometry relative="1" as="geometry" />
        </mxCell>
        <mxCell id="PjsLy7RfEbO4GPlwERFH-75" style="edgeStyle=orthogonalEdgeStyle;rounded=0;orthogonalLoop=1;jettySize=auto;html=1;entryX=0;entryY=0.75;entryDx=0;entryDy=0;" parent="1" source="PjsLy7RfEbO4GPlwERFH-65" target="PjsLy7RfEbO4GPlwERFH-70" edge="1">
          <mxGeometry relative="1" as="geometry" />
        </mxCell>
        <mxCell id="PjsLy7RfEbO4GPlwERFH-65" value="36. Obligaciones del cuidadano" style="rounded=0;whiteSpace=wrap;html=1;" parent="1" vertex="1">
          <mxGeometry x="1880" y="1110" width="120" height="60" as="geometry" />
        </mxCell>
        <mxCell id="PjsLy7RfEbO4GPlwERFH-66" value="Registrarse a catastro" style="rounded=1;whiteSpace=wrap;html=1;" parent="1" vertex="1">
          <mxGeometry x="2080" y="900" width="120" height="60" as="geometry" />
        </mxCell>
        <mxCell id="PjsLy7RfEbO4GPlwERFH-67" value="Formar parte de los cuerpos de reserva" style="rounded=1;whiteSpace=wrap;html=1;" parent="1" vertex="1">
          <mxGeometry x="2080" y="970" width="120" height="60" as="geometry" />
        </mxCell>
        <mxCell id="PjsLy7RfEbO4GPlwERFH-68" value="Votar en las elecciones" style="rounded=1;whiteSpace=wrap;html=1;" parent="1" vertex="1">
          <mxGeometry x="2080" y="1040" width="120" height="60" as="geometry" />
        </mxCell>
        <mxCell id="PjsLy7RfEbO4GPlwERFH-69" value="Desempeñar cargos de eleccion popular" style="rounded=1;whiteSpace=wrap;html=1;" parent="1" vertex="1">
          <mxGeometry x="2080" y="1110" width="120" height="60" as="geometry" />
        </mxCell>
        <mxCell id="PjsLy7RfEbO4GPlwERFH-70" value="Cargos concejiles, funciones electorales y jurado" style="rounded=1;whiteSpace=wrap;html=1;" parent="1" vertex="1">
          <mxGeometry x="2080" y="1180" width="120" height="60" as="geometry" />
        </mxCell>
        <mxCell id="PjsLy7RfEbO4GPlwERFH-81" style="edgeStyle=orthogonalEdgeStyle;rounded=0;orthogonalLoop=1;jettySize=auto;html=1;" parent="1" source="PjsLy7RfEbO4GPlwERFH-77" target="PjsLy7RfEbO4GPlwERFH-78" edge="1">
          <mxGeometry relative="1" as="geometry" />
        </mxCell>
        <mxCell id="PjsLy7RfEbO4GPlwERFH-82" style="edgeStyle=orthogonalEdgeStyle;rounded=0;orthogonalLoop=1;jettySize=auto;html=1;entryX=0.5;entryY=1;entryDx=0;entryDy=0;" parent="1" source="PjsLy7RfEbO4GPlwERFH-77" target="PjsLy7RfEbO4GPlwERFH-80" edge="1">
          <mxGeometry relative="1" as="geometry" />
        </mxCell>
        <mxCell id="PjsLy7RfEbO4GPlwERFH-77" value="37. Nacionalidad mexicana" style="rounded=0;whiteSpace=wrap;html=1;" parent="1" vertex="1">
          <mxGeometry x="1870" y="800" width="120" height="50" as="geometry" />
        </mxCell>
        <mxCell id="PjsLy7RfEbO4GPlwERFH-78" value="Ningun Mexicano por nacimiento podra ser privado de su nacionalidad" style="rounded=1;whiteSpace=wrap;html=1;" parent="1" vertex="1">
          <mxGeometry x="2050" y="720" width="120" height="60" as="geometry" />
        </mxCell>
        <mxCell id="PjsLy7RfEbO4GPlwERFH-85" style="edgeStyle=orthogonalEdgeStyle;rounded=0;orthogonalLoop=1;jettySize=auto;html=1;" parent="1" source="PjsLy7RfEbO4GPlwERFH-80" target="PjsLy7RfEbO4GPlwERFH-83" edge="1">
          <mxGeometry relative="1" as="geometry" />
        </mxCell>
        <mxCell id="PjsLy7RfEbO4GPlwERFH-86" style="edgeStyle=orthogonalEdgeStyle;rounded=0;orthogonalLoop=1;jettySize=auto;html=1;entryX=0.451;entryY=1.05;entryDx=0;entryDy=0;entryPerimeter=0;" parent="1" source="PjsLy7RfEbO4GPlwERFH-80" target="PjsLy7RfEbO4GPlwERFH-84" edge="1">
          <mxGeometry relative="1" as="geometry">
            <Array as="points">
              <mxPoint x="1930" y="560" />
              <mxPoint x="1924" y="560" />
            </Array>
          </mxGeometry>
        </mxCell>
        <mxCell id="PjsLy7RfEbO4GPlwERFH-103" style="edgeStyle=orthogonalEdgeStyle;rounded=0;orthogonalLoop=1;jettySize=auto;html=1;entryX=0.5;entryY=1;entryDx=0;entryDy=0;" parent="1" source="PjsLy7RfEbO4GPlwERFH-80" target="PjsLy7RfEbO4GPlwERFH-90" edge="1">
          <mxGeometry relative="1" as="geometry">
            <Array as="points">
              <mxPoint x="1930" y="560" />
              <mxPoint x="2070" y="560" />
            </Array>
          </mxGeometry>
        </mxCell>
        <mxCell id="PjsLy7RfEbO4GPlwERFH-104" style="edgeStyle=orthogonalEdgeStyle;rounded=0;orthogonalLoop=1;jettySize=auto;html=1;entryX=0.25;entryY=1;entryDx=0;entryDy=0;" parent="1" source="PjsLy7RfEbO4GPlwERFH-80" target="PjsLy7RfEbO4GPlwERFH-91" edge="1">
          <mxGeometry relative="1" as="geometry">
            <Array as="points">
              <mxPoint x="2080" y="690" />
              <mxPoint x="2080" y="560" />
              <mxPoint x="2130" y="560" />
              <mxPoint x="2130" y="490" />
              <mxPoint x="2200" y="490" />
            </Array>
          </mxGeometry>
        </mxCell>
        <mxCell id="PjsLy7RfEbO4GPlwERFH-105" style="edgeStyle=orthogonalEdgeStyle;rounded=0;orthogonalLoop=1;jettySize=auto;html=1;" parent="1" source="PjsLy7RfEbO4GPlwERFH-80" edge="1">
          <mxGeometry relative="1" as="geometry">
            <mxPoint x="2170" y="560" as="targetPoint" />
            <Array as="points">
              <mxPoint x="1930" y="560" />
            </Array>
          </mxGeometry>
        </mxCell>
        <mxCell id="OrsZ6i-USayrmDN_K0OZ-2" style="edgeStyle=orthogonalEdgeStyle;rounded=0;orthogonalLoop=1;jettySize=auto;html=1;entryX=0;entryY=0.5;entryDx=0;entryDy=0;" edge="1" parent="1" source="PjsLy7RfEbO4GPlwERFH-80" target="OrsZ6i-USayrmDN_K0OZ-1">
          <mxGeometry relative="1" as="geometry">
            <Array as="points">
              <mxPoint x="2080" y="690" />
              <mxPoint x="2080" y="630" />
            </Array>
          </mxGeometry>
        </mxCell>
        <mxCell id="PjsLy7RfEbO4GPlwERFH-80" value="&lt;span style=&quot;white-space: normal&quot;&gt;Nacionalidad se pierde&lt;/span&gt;" style="ellipse;whiteSpace=wrap;html=1;" parent="1" vertex="1">
          <mxGeometry x="1870" y="650" width="120" height="80" as="geometry" />
        </mxCell>
        <mxCell id="PjsLy7RfEbO4GPlwERFH-83" value="Adquision de otra nacionalidad" style="rounded=1;whiteSpace=wrap;html=1;fillColor=#fff2cc;strokeColor=#d6b656;" parent="1" vertex="1">
          <mxGeometry x="1730" y="420" width="120" height="60" as="geometry" />
        </mxCell>
        <mxCell id="PjsLy7RfEbO4GPlwERFH-84" value="Residir 5 años continuos en el extranjero" style="rounded=1;whiteSpace=wrap;html=1;fillColor=#fff2cc;strokeColor=#d6b656;" parent="1" vertex="1">
          <mxGeometry x="1870" y="420" width="120" height="60" as="geometry" />
        </mxCell>
        <mxCell id="PjsLy7RfEbO4GPlwERFH-87" value="NATURALIZACION" style="text;html=1;strokeColor=#d6b656;fillColor=#fff2cc;align=center;verticalAlign=middle;whiteSpace=wrap;rounded=0;" parent="1" vertex="1">
          <mxGeometry x="1800" y="550" width="120" height="20" as="geometry" />
        </mxCell>
        <mxCell id="PjsLy7RfEbO4GPlwERFH-90" value="Aceptar titulos nobolitarios" style="rounded=1;whiteSpace=wrap;html=1;" parent="1" vertex="1">
          <mxGeometry x="2010" y="410" width="120" height="60" as="geometry" />
        </mxCell>
        <mxCell id="PjsLy7RfEbO4GPlwERFH-91" value="Prestar servicios a un gobierno extranjero" style="rounded=1;whiteSpace=wrap;html=1;" parent="1" vertex="1">
          <mxGeometry x="2170" y="420" width="120" height="60" as="geometry" />
        </mxCell>
        <mxCell id="PjsLy7RfEbO4GPlwERFH-94" style="edgeStyle=orthogonalEdgeStyle;rounded=0;orthogonalLoop=1;jettySize=auto;html=1;entryX=0;entryY=0.5;entryDx=0;entryDy=0;" parent="1" source="PjsLy7RfEbO4GPlwERFH-92" target="PjsLy7RfEbO4GPlwERFH-93" edge="1">
          <mxGeometry relative="1" as="geometry" />
        </mxCell>
        <mxCell id="PjsLy7RfEbO4GPlwERFH-92" value="Condecoraciones extranjeras" style="rounded=1;whiteSpace=wrap;html=1;" parent="1" vertex="1">
          <mxGeometry x="2170" y="510" width="120" height="60" as="geometry" />
        </mxCell>
        <mxCell id="PjsLy7RfEbO4GPlwERFH-99" style="edgeStyle=orthogonalEdgeStyle;rounded=0;orthogonalLoop=1;jettySize=auto;html=1;entryX=0;entryY=0.25;entryDx=0;entryDy=0;" parent="1" source="PjsLy7RfEbO4GPlwERFH-93" target="PjsLy7RfEbO4GPlwERFH-95" edge="1">
          <mxGeometry relative="1" as="geometry" />
        </mxCell>
        <mxCell id="PjsLy7RfEbO4GPlwERFH-100" style="edgeStyle=orthogonalEdgeStyle;rounded=0;orthogonalLoop=1;jettySize=auto;html=1;entryX=0;entryY=0.25;entryDx=0;entryDy=0;" parent="1" source="PjsLy7RfEbO4GPlwERFH-93" target="PjsLy7RfEbO4GPlwERFH-96" edge="1">
          <mxGeometry relative="1" as="geometry" />
        </mxCell>
        <mxCell id="PjsLy7RfEbO4GPlwERFH-101" style="edgeStyle=orthogonalEdgeStyle;rounded=0;orthogonalLoop=1;jettySize=auto;html=1;entryX=0;entryY=0.25;entryDx=0;entryDy=0;" parent="1" source="PjsLy7RfEbO4GPlwERFH-93" target="PjsLy7RfEbO4GPlwERFH-97" edge="1">
          <mxGeometry relative="1" as="geometry" />
        </mxCell>
        <mxCell id="PjsLy7RfEbO4GPlwERFH-102" style="edgeStyle=orthogonalEdgeStyle;rounded=0;orthogonalLoop=1;jettySize=auto;html=1;entryX=0;entryY=0.75;entryDx=0;entryDy=0;" parent="1" source="PjsLy7RfEbO4GPlwERFH-93" target="PjsLy7RfEbO4GPlwERFH-98" edge="1">
          <mxGeometry relative="1" as="geometry" />
        </mxCell>
        <mxCell id="PjsLy7RfEbO4GPlwERFH-93" value="Excepto" style="ellipse;whiteSpace=wrap;html=1;" parent="1" vertex="1">
          <mxGeometry x="2360" y="510" width="70" height="40" as="geometry" />
        </mxCell>
        <mxCell id="PjsLy7RfEbO4GPlwERFH-95" value="Presidente de la Republica" style="rounded=1;whiteSpace=wrap;html=1;" parent="1" vertex="1">
          <mxGeometry x="2490" y="420" width="100" height="40" as="geometry" />
        </mxCell>
        <mxCell id="PjsLy7RfEbO4GPlwERFH-96" value="Senadores&lt;br&gt;" style="rounded=1;whiteSpace=wrap;html=1;" parent="1" vertex="1">
          <mxGeometry x="2490" y="480" width="100" height="30" as="geometry" />
        </mxCell>
        <mxCell id="PjsLy7RfEbO4GPlwERFH-97" value="Diputados&lt;br&gt;" style="rounded=1;whiteSpace=wrap;html=1;" parent="1" vertex="1">
          <mxGeometry x="2490" y="520" width="100" height="30" as="geometry" />
        </mxCell>
        <mxCell id="PjsLy7RfEbO4GPlwERFH-98" value="Ministro de la suprema corte" style="rounded=1;whiteSpace=wrap;html=1;" parent="1" vertex="1">
          <mxGeometry x="2490" y="560" width="100" height="30" as="geometry" />
        </mxCell>
        <mxCell id="OrsZ6i-USayrmDN_K0OZ-1" value="Por ayudar, en contra de la nacion" style="rounded=1;whiteSpace=wrap;html=1;" vertex="1" parent="1">
          <mxGeometry x="2150" y="600" width="120" height="60" as="geometry" />
        </mxCell>
        <mxCell id="OrsZ6i-USayrmDN_K0OZ-10" style="edgeStyle=orthogonalEdgeStyle;rounded=0;orthogonalLoop=1;jettySize=auto;html=1;" edge="1" parent="1" source="OrsZ6i-USayrmDN_K0OZ-4" target="OrsZ6i-USayrmDN_K0OZ-5">
          <mxGeometry relative="1" as="geometry">
            <Array as="points">
              <mxPoint x="1920" y="210" />
              <mxPoint x="1700" y="210" />
            </Array>
          </mxGeometry>
        </mxCell>
        <mxCell id="OrsZ6i-USayrmDN_K0OZ-11" style="edgeStyle=orthogonalEdgeStyle;rounded=0;orthogonalLoop=1;jettySize=auto;html=1;" edge="1" parent="1" source="OrsZ6i-USayrmDN_K0OZ-4" target="OrsZ6i-USayrmDN_K0OZ-6">
          <mxGeometry relative="1" as="geometry" />
        </mxCell>
        <mxCell id="OrsZ6i-USayrmDN_K0OZ-12" style="edgeStyle=orthogonalEdgeStyle;rounded=0;orthogonalLoop=1;jettySize=auto;html=1;" edge="1" parent="1" source="OrsZ6i-USayrmDN_K0OZ-4" target="OrsZ6i-USayrmDN_K0OZ-7">
          <mxGeometry relative="1" as="geometry" />
        </mxCell>
        <mxCell id="OrsZ6i-USayrmDN_K0OZ-13" style="edgeStyle=orthogonalEdgeStyle;rounded=0;orthogonalLoop=1;jettySize=auto;html=1;" edge="1" parent="1" source="OrsZ6i-USayrmDN_K0OZ-4" target="OrsZ6i-USayrmDN_K0OZ-8">
          <mxGeometry relative="1" as="geometry">
            <Array as="points">
              <mxPoint x="1920" y="210" />
              <mxPoint x="2120" y="210" />
            </Array>
          </mxGeometry>
        </mxCell>
        <mxCell id="OrsZ6i-USayrmDN_K0OZ-4" value="38 Suspension de derechos o prerrogativas de los cuidadanos" style="rounded=0;whiteSpace=wrap;html=1;" vertex="1" parent="1">
          <mxGeometry x="1860" y="250" width="120" height="60" as="geometry" />
        </mxCell>
        <mxCell id="OrsZ6i-USayrmDN_K0OZ-5" value="Falta de cumplimiento de obligaciones" style="rounded=1;whiteSpace=wrap;html=1;" vertex="1" parent="1">
          <mxGeometry x="1640" y="120" width="120" height="60" as="geometry" />
        </mxCell>
        <mxCell id="OrsZ6i-USayrmDN_K0OZ-6" value="Sujeto a un proceso criminal que merezca pena corporal" style="rounded=1;whiteSpace=wrap;html=1;" vertex="1" parent="1">
          <mxGeometry x="1780" y="120" width="120" height="60" as="geometry" />
        </mxCell>
        <mxCell id="OrsZ6i-USayrmDN_K0OZ-7" value="Durante pena corporal" style="rounded=1;whiteSpace=wrap;html=1;" vertex="1" parent="1">
          <mxGeometry x="1920" y="120" width="120" height="60" as="geometry" />
        </mxCell>
        <mxCell id="OrsZ6i-USayrmDN_K0OZ-8" value="Vagancia o ebriedad" style="rounded=1;whiteSpace=wrap;html=1;" vertex="1" parent="1">
          <mxGeometry x="2060" y="120" width="120" height="60" as="geometry" />
        </mxCell>
        <mxCell id="OrsZ6i-USayrmDN_K0OZ-19" style="edgeStyle=orthogonalEdgeStyle;rounded=0;orthogonalLoop=1;jettySize=auto;html=1;entryX=1;entryY=0.5;entryDx=0;entryDy=0;" edge="1" parent="1" source="OrsZ6i-USayrmDN_K0OZ-15" target="OrsZ6i-USayrmDN_K0OZ-18">
          <mxGeometry relative="1" as="geometry" />
        </mxCell>
        <mxCell id="OrsZ6i-USayrmDN_K0OZ-22" style="edgeStyle=orthogonalEdgeStyle;rounded=0;orthogonalLoop=1;jettySize=auto;html=1;entryX=1;entryY=0.5;entryDx=0;entryDy=0;" edge="1" parent="1" source="OrsZ6i-USayrmDN_K0OZ-15" target="OrsZ6i-USayrmDN_K0OZ-20">
          <mxGeometry relative="1" as="geometry">
            <mxPoint x="1140" y="1560" as="targetPoint" />
          </mxGeometry>
        </mxCell>
        <mxCell id="OrsZ6i-USayrmDN_K0OZ-23" style="edgeStyle=orthogonalEdgeStyle;rounded=0;orthogonalLoop=1;jettySize=auto;html=1;entryX=1;entryY=0.5;entryDx=0;entryDy=0;" edge="1" parent="1" source="OrsZ6i-USayrmDN_K0OZ-15" target="OrsZ6i-USayrmDN_K0OZ-21">
          <mxGeometry relative="1" as="geometry" />
        </mxCell>
        <mxCell id="OrsZ6i-USayrmDN_K0OZ-15" value="Soberania Nacional y de la Forma de Gobierno" style="rounded=0;whiteSpace=wrap;html=1;" vertex="1" parent="1">
          <mxGeometry x="1200" y="1420" width="120" height="60" as="geometry" />
        </mxCell>
        <mxCell id="OrsZ6i-USayrmDN_K0OZ-18" value="39. La soberania nacional reside esencial y originalmente al pueblo" style="rounded=1;whiteSpace=wrap;html=1;" vertex="1" parent="1">
          <mxGeometry x="980" y="1415" width="140" height="70" as="geometry" />
        </mxCell>
        <mxCell id="OrsZ6i-USayrmDN_K0OZ-20" value="40. Es voluntad del pueblo mexicano constituirse en una Republica" style="rounded=1;whiteSpace=wrap;html=1;" vertex="1" parent="1">
          <mxGeometry x="980" y="1520" width="140" height="70" as="geometry" />
        </mxCell>
        <mxCell id="OrsZ6i-USayrmDN_K0OZ-21" value="41. El Pueblo ejerce su soberania por medio del los Poderes de la union" style="rounded=1;whiteSpace=wrap;html=1;fillColor=#dae8fc;strokeColor=#6c8ebf;" vertex="1" parent="1">
          <mxGeometry x="980" y="1620" width="140" height="70" as="geometry" />
        </mxCell>
        <mxCell id="OrsZ6i-USayrmDN_K0OZ-28" style="edgeStyle=orthogonalEdgeStyle;rounded=0;orthogonalLoop=1;jettySize=auto;html=1;" edge="1" parent="1" source="OrsZ6i-USayrmDN_K0OZ-24" target="OrsZ6i-USayrmDN_K0OZ-25">
          <mxGeometry relative="1" as="geometry" />
        </mxCell>
        <mxCell id="OrsZ6i-USayrmDN_K0OZ-29" style="edgeStyle=orthogonalEdgeStyle;rounded=0;orthogonalLoop=1;jettySize=auto;html=1;entryX=1;entryY=0.5;entryDx=0;entryDy=0;" edge="1" parent="1" source="OrsZ6i-USayrmDN_K0OZ-24" target="OrsZ6i-USayrmDN_K0OZ-35">
          <mxGeometry relative="1" as="geometry">
            <mxPoint x="880" y="1887.1399999999999" as="targetPoint" />
          </mxGeometry>
        </mxCell>
        <mxCell id="OrsZ6i-USayrmDN_K0OZ-30" style="edgeStyle=orthogonalEdgeStyle;rounded=0;orthogonalLoop=1;jettySize=auto;html=1;entryX=1;entryY=0.5;entryDx=0;entryDy=0;" edge="1" parent="1" source="OrsZ6i-USayrmDN_K0OZ-24" target="OrsZ6i-USayrmDN_K0OZ-27">
          <mxGeometry relative="1" as="geometry">
            <mxPoint x="915" y="1970" as="targetPoint" />
          </mxGeometry>
        </mxCell>
        <mxCell id="OrsZ6i-USayrmDN_K0OZ-31" style="edgeStyle=orthogonalEdgeStyle;rounded=0;orthogonalLoop=1;jettySize=auto;html=1;" edge="1" parent="1" source="OrsZ6i-USayrmDN_K0OZ-24" target="OrsZ6i-USayrmDN_K0OZ-21">
          <mxGeometry relative="1" as="geometry" />
        </mxCell>
        <mxCell id="OrsZ6i-USayrmDN_K0OZ-24" value="Poderes de la Union&lt;br&gt;" style="ellipse;whiteSpace=wrap;html=1;rounded=1;shadow=1;comic=0;labelBackgroundColor=none;strokeWidth=2;fontFamily=Verdana;fontSize=12;align=center;fillColor=#f8cecc;strokeColor=#b85450;" vertex="1" parent="1">
          <mxGeometry x="950" y="1760" width="120" height="120" as="geometry" />
        </mxCell>
        <mxCell id="OrsZ6i-USayrmDN_K0OZ-25" value="Poder Ejecutivo.&lt;br&gt;&lt;span style=&quot;color: rgb(34 , 34 , 34) ; font-family: sans-serif ; font-size: 14px ; background-color: rgb(255 , 255 , 255)&quot;&gt;El Presidente de los Estados Unidos Mexicanos&lt;/span&gt;" style="rounded=1;whiteSpace=wrap;html=1;" vertex="1" parent="1">
          <mxGeometry x="740" y="1740" width="140" height="80" as="geometry" />
        </mxCell>
        <mxCell id="OrsZ6i-USayrmDN_K0OZ-27" value="Poder Judicial" style="rounded=1;whiteSpace=wrap;html=1;" vertex="1" parent="1">
          <mxGeometry x="760" y="1950" width="120" height="60" as="geometry" />
        </mxCell>
        <mxCell id="OrsZ6i-USayrmDN_K0OZ-47" style="edgeStyle=orthogonalEdgeStyle;rounded=0;orthogonalLoop=1;jettySize=auto;html=1;entryX=1;entryY=0.25;entryDx=0;entryDy=0;" edge="1" parent="1" source="OrsZ6i-USayrmDN_K0OZ-34" target="OrsZ6i-USayrmDN_K0OZ-39">
          <mxGeometry relative="1" as="geometry" />
        </mxCell>
        <mxCell id="OrsZ6i-USayrmDN_K0OZ-48" style="edgeStyle=orthogonalEdgeStyle;rounded=0;orthogonalLoop=1;jettySize=auto;html=1;" edge="1" parent="1" source="OrsZ6i-USayrmDN_K0OZ-34" target="OrsZ6i-USayrmDN_K0OZ-40">
          <mxGeometry relative="1" as="geometry" />
        </mxCell>
        <mxCell id="OrsZ6i-USayrmDN_K0OZ-34" value="Congreso de la Union&lt;br&gt;" style="rounded=0;whiteSpace=wrap;html=1;" vertex="1" parent="1">
          <mxGeometry x="570" y="1850" width="120" height="60" as="geometry" />
        </mxCell>
        <mxCell id="OrsZ6i-USayrmDN_K0OZ-37" style="edgeStyle=orthogonalEdgeStyle;rounded=0;orthogonalLoop=1;jettySize=auto;html=1;" edge="1" parent="1" source="OrsZ6i-USayrmDN_K0OZ-35" target="OrsZ6i-USayrmDN_K0OZ-34">
          <mxGeometry relative="1" as="geometry" />
        </mxCell>
        <mxCell id="OrsZ6i-USayrmDN_K0OZ-35" value="&lt;span style=&quot;white-space: normal&quot;&gt;Poder legislativo&lt;/span&gt;" style="rounded=0;whiteSpace=wrap;html=1;" vertex="1" parent="1">
          <mxGeometry x="760" y="1850" width="120" height="60" as="geometry" />
        </mxCell>
        <mxCell id="OrsZ6i-USayrmDN_K0OZ-46" style="edgeStyle=orthogonalEdgeStyle;rounded=0;orthogonalLoop=1;jettySize=auto;html=1;entryX=1;entryY=0.5;entryDx=0;entryDy=0;" edge="1" parent="1" source="OrsZ6i-USayrmDN_K0OZ-39" target="OrsZ6i-USayrmDN_K0OZ-41">
          <mxGeometry relative="1" as="geometry" />
        </mxCell>
        <mxCell id="OrsZ6i-USayrmDN_K0OZ-39" value="Camara de Diputados" style="rounded=1;whiteSpace=wrap;html=1;" vertex="1" parent="1">
          <mxGeometry x="340" y="1770" width="120" height="60" as="geometry" />
        </mxCell>
        <mxCell id="OrsZ6i-USayrmDN_K0OZ-45" style="edgeStyle=orthogonalEdgeStyle;rounded=0;orthogonalLoop=1;jettySize=auto;html=1;" edge="1" parent="1" source="OrsZ6i-USayrmDN_K0OZ-40">
          <mxGeometry relative="1" as="geometry">
            <mxPoint x="280" y="1900" as="targetPoint" />
          </mxGeometry>
        </mxCell>
        <mxCell id="OrsZ6i-USayrmDN_K0OZ-40" value="Camara de Senadores" style="rounded=1;whiteSpace=wrap;html=1;" vertex="1" parent="1">
          <mxGeometry x="340" y="1870" width="120" height="60" as="geometry" />
        </mxCell>
        <mxCell id="OrsZ6i-USayrmDN_K0OZ-41" value="500.&amp;nbsp;&lt;br&gt;300 mayoria relativa&lt;br&gt;200&amp;nbsp; representacion proporcional" style="rounded=1;whiteSpace=wrap;html=1;" vertex="1" parent="1">
          <mxGeometry x="60" y="1770" width="200" height="60" as="geometry" />
        </mxCell>
        <mxCell id="OrsZ6i-USayrmDN_K0OZ-42" value="&lt;font style=&quot;font-size: 12px&quot;&gt;128&lt;br&gt;&lt;span style=&quot;font-family: &amp;#34;verdana&amp;#34; , &amp;#34;arial&amp;#34; , &amp;#34;helvetica&amp;#34; , sans-serif ; text-align: justify&quot;&gt;64&amp;nbsp; Mayoría Relativa, &lt;br&gt;32&amp;nbsp; Representación Proporcional y &lt;br&gt;32 de Primera Minoría.&lt;/span&gt;&lt;/font&gt;" style="rounded=1;whiteSpace=wrap;html=1;" vertex="1" parent="1">
          <mxGeometry x="50" y="1880" width="220" height="60" as="geometry" />
        </mxCell>
        <mxCell id="OrsZ6i-USayrmDN_K0OZ-49" value="Son Entidades de interes publico" style="rounded=1;whiteSpace=wrap;html=1;" vertex="1" parent="1">
          <mxGeometry x="350" y="1360" width="120" height="60" as="geometry" />
        </mxCell>
        <mxCell id="OrsZ6i-USayrmDN_K0OZ-52" style="edgeStyle=orthogonalEdgeStyle;rounded=0;orthogonalLoop=1;jettySize=auto;html=1;entryX=0.25;entryY=0;entryDx=0;entryDy=0;" edge="1" parent="1" source="OrsZ6i-USayrmDN_K0OZ-50" target="OrsZ6i-USayrmDN_K0OZ-49">
          <mxGeometry relative="1" as="geometry" />
        </mxCell>
        <mxCell id="OrsZ6i-USayrmDN_K0OZ-53" style="edgeStyle=orthogonalEdgeStyle;rounded=0;orthogonalLoop=1;jettySize=auto;html=1;" edge="1" parent="1" source="OrsZ6i-USayrmDN_K0OZ-50" target="OrsZ6i-USayrmDN_K0OZ-51">
          <mxGeometry relative="1" as="geometry" />
        </mxCell>
        <mxCell id="OrsZ6i-USayrmDN_K0OZ-63" style="edgeStyle=orthogonalEdgeStyle;rounded=0;orthogonalLoop=1;jettySize=auto;html=1;entryX=0.5;entryY=1;entryDx=0;entryDy=0;" edge="1" parent="1" source="OrsZ6i-USayrmDN_K0OZ-50" target="OrsZ6i-USayrmDN_K0OZ-54">
          <mxGeometry relative="1" as="geometry" />
        </mxCell>
        <mxCell id="OrsZ6i-USayrmDN_K0OZ-50" value="Partidos Politicos" style="ellipse;whiteSpace=wrap;html=1;rounded=1;shadow=1;comic=0;labelBackgroundColor=none;strokeWidth=2;fontFamily=Verdana;fontSize=12;align=center;fillColor=#f8cecc;strokeColor=#b85450;" vertex="1" parent="1">
          <mxGeometry x="490" y="1190" width="120" height="120" as="geometry" />
        </mxCell>
        <mxCell id="OrsZ6i-USayrmDN_K0OZ-51" value="La ley determina las normas y requisitos para su registro" style="rounded=1;whiteSpace=wrap;html=1;" vertex="1" parent="1">
          <mxGeometry x="500" y="1360" width="120" height="60" as="geometry" />
        </mxCell>
        <mxCell id="OrsZ6i-USayrmDN_K0OZ-59" style="edgeStyle=orthogonalEdgeStyle;rounded=0;orthogonalLoop=1;jettySize=auto;html=1;entryX=0.5;entryY=1;entryDx=0;entryDy=0;" edge="1" parent="1" source="OrsZ6i-USayrmDN_K0OZ-54" target="OrsZ6i-USayrmDN_K0OZ-55">
          <mxGeometry relative="1" as="geometry">
            <Array as="points">
              <mxPoint x="560" y="1010" />
              <mxPoint x="380" y="1010" />
            </Array>
          </mxGeometry>
        </mxCell>
        <mxCell id="OrsZ6i-USayrmDN_K0OZ-60" style="edgeStyle=orthogonalEdgeStyle;rounded=0;orthogonalLoop=1;jettySize=auto;html=1;entryX=0.432;entryY=1.04;entryDx=0;entryDy=0;entryPerimeter=0;" edge="1" parent="1" source="OrsZ6i-USayrmDN_K0OZ-54" target="OrsZ6i-USayrmDN_K0OZ-56">
          <mxGeometry relative="1" as="geometry" />
        </mxCell>
        <mxCell id="OrsZ6i-USayrmDN_K0OZ-61" style="edgeStyle=orthogonalEdgeStyle;rounded=0;orthogonalLoop=1;jettySize=auto;html=1;entryX=0.5;entryY=1;entryDx=0;entryDy=0;" edge="1" parent="1" source="OrsZ6i-USayrmDN_K0OZ-54" target="OrsZ6i-USayrmDN_K0OZ-57">
          <mxGeometry relative="1" as="geometry" />
        </mxCell>
        <mxCell id="OrsZ6i-USayrmDN_K0OZ-62" style="edgeStyle=orthogonalEdgeStyle;rounded=0;orthogonalLoop=1;jettySize=auto;html=1;" edge="1" parent="1" source="OrsZ6i-USayrmDN_K0OZ-54" target="OrsZ6i-USayrmDN_K0OZ-58">
          <mxGeometry relative="1" as="geometry">
            <Array as="points">
              <mxPoint x="560" y="1010" />
              <mxPoint x="800" y="1010" />
            </Array>
          </mxGeometry>
        </mxCell>
        <mxCell id="OrsZ6i-USayrmDN_K0OZ-54" value="Fin/Proposito" style="ellipse;whiteSpace=wrap;html=1;" vertex="1" parent="1">
          <mxGeometry x="500" y="1030" width="120" height="80" as="geometry" />
        </mxCell>
        <mxCell id="OrsZ6i-USayrmDN_K0OZ-55" value="Promovoer la participacion en la vida democratica&lt;br&gt;" style="rounded=1;whiteSpace=wrap;html=1;" vertex="1" parent="1">
          <mxGeometry x="320" y="920" width="120" height="60" as="geometry" />
        </mxCell>
        <mxCell id="OrsZ6i-USayrmDN_K0OZ-56" value="Fomentar el principio de paridad" style="rounded=1;whiteSpace=wrap;html=1;" vertex="1" parent="1">
          <mxGeometry x="460" y="920" width="120" height="60" as="geometry" />
        </mxCell>
        <mxCell id="OrsZ6i-USayrmDN_K0OZ-57" value="hacer posible su acceso al ejercicio de poder publico" style="rounded=1;whiteSpace=wrap;html=1;" vertex="1" parent="1">
          <mxGeometry x="600" y="920" width="120" height="60" as="geometry" />
        </mxCell>
        <mxCell id="OrsZ6i-USayrmDN_K0OZ-58" value="Postular principios e ideas" style="rounded=1;whiteSpace=wrap;html=1;" vertex="1" parent="1">
          <mxGeometry x="740" y="920" width="120" height="60" as="geometry" />
        </mxCell>
      </root>
    </mxGraphModel>
  </diagram>
</mxfile>
